<svg width="2002" height="2122" viewBox="0 0 2002 2122" fill="none" xmlns="http://www.w3.org/2000/svg">
<path fill-rule="evenodd" clip-rule="evenodd" d="M0 71.28L10.01 114.48C21.6883 157.68 43.3767 244.08 65.065 261.36C86.7533 278.64 108.442 226.8 128.462 235.44C150.15 244.08 171.838 313.2 193.527 365.04C215.215 416.88 236.903 451.44 258.592 399.6C280.28 347.76 301.968 209.52 323.657 123.12C343.677 36.72 365.365 2.16 387.053 10.8C408.742 19.44 430.43 71.28 452.118 114.48C473.807 157.68 495.495 192.24 517.183 183.6C538.872 174.96 558.892 123.12 580.58 114.48C602.268 105.84 623.957 140.4 645.645 140.4C667.333 140.4 689.022 105.84 710.71 131.76C732.398 157.68 754.087 244.08 775.775 295.92C795.795 347.76 817.483 365.04 839.172 365.04C860.86 365.04 882.548 347.76 904.237 278.64C925.925 209.52 947.613 88.56 969.302 45.36C990.99 2.16 1011.01 36.72 1032.7 54C1054.39 71.28 1076.07 71.28 1097.76 62.64C1119.45 54 1141.14 36.72 1162.83 36.72C1184.52 36.72 1206.2 54 1226.22 79.92C1247.91 105.84 1269.6 140.4 1291.29 123.12C1312.98 105.84 1334.67 36.72 1356.35 19.44C1378.04 2.16 1399.73 36.72 1421.42 62.64C1443.11 88.56 1463.13 105.84 1484.82 140.4C1506.51 174.96 1528.19 226.8 1549.88 270C1571.57 313.2 1593.26 347.76 1614.95 330.48C1636.64 313.2 1658.32 244.08 1678.34 183.6C1700.03 123.12 1721.72 71.28 1743.41 54C1765.1 36.72 1786.78 54 1808.47 97.2C1830.16 140.4 1851.85 209.52 1873.54 192.24C1893.56 174.96 1915.25 71.28 1936.93 28.08C1958.62 -15.12 1980.31 2.16 1991.99 10.8L2002 19.44V486H1991.99C1980.31 486 1958.62 486 1936.93 486C1915.25 486 1893.56 486 1873.54 486C1851.85 486 1830.16 486 1808.47 486C1786.78 486 1765.1 486 1743.41 486C1721.72 486 1700.03 486 1678.34 486C1658.32 486 1636.64 486 1614.95 486C1593.26 486 1571.57 486 1549.88 486C1528.19 486 1506.51 486 1484.82 486C1463.13 486 1443.11 486 1421.42 486C1399.73 486 1378.04 486 1356.35 486C1334.67 486 1312.98 486 1291.29 486C1269.6 486 1247.91 486 1226.22 486C1206.2 486 1184.52 486 1162.83 486C1141.14 486 1119.45 486 1097.76 486C1076.07 486 1054.39 486 1032.7 486C1011.01 486 990.99 486 969.302 486C947.613 486 925.925 486 904.237 486C882.548 486 860.86 486 839.172 486C817.483 486 795.795 486 775.775 486C754.087 486 732.398 486 710.71 486C689.022 486 667.333 486 645.645 486C623.957 486 602.268 486 580.58 486C558.892 486 538.872 486 517.183 486C495.495 486 473.807 486 452.118 486C430.43 486 408.742 486 387.053 486C365.365 486 343.677 486 323.657 486C301.968 486 280.28 486 258.592 486C236.903 486 215.215 486 193.527 486C171.838 486 150.15 486 128.462 486C108.442 486 86.7533 486 65.065 486C43.3767 486 21.6883 486 10.01 486H0V71.28Z" fill="url(#paint0_linear_123_154)"/>
<path d="M0 485H2002V1059L1015 1132.5L25.5 1030.5L0 485Z" fill="url(#paint1_linear_123_154)"/>
<path fill-rule="evenodd" clip-rule="evenodd" d="M0 193.356L10.01 245.693C21.6883 298.03 43.3767 402.705 65.065 423.64C86.7533 444.574 108.442 381.77 128.462 392.237C150.15 402.705 171.838 486.444 193.527 549.249C215.215 612.053 236.903 653.923 258.592 591.118C280.28 528.314 301.968 360.835 323.657 256.161C343.677 151.487 365.365 109.617 387.053 120.084C408.742 130.552 430.43 193.356 452.118 245.693C473.807 298.03 495.495 339.9 517.183 329.433C538.872 318.965 558.892 256.161 580.58 245.693C602.268 235.226 623.957 277.096 645.645 277.096C667.333 277.096 689.022 235.226 710.71 266.628C732.398 298.03 754.087 402.705 775.775 465.509C795.795 528.314 817.483 549.249 839.172 549.249C860.86 549.249 882.548 528.314 904.237 444.574C925.925 360.835 947.613 214.291 969.302 161.954C990.99 109.617 1011.01 151.487 1032.7 172.421C1054.39 193.356 1076.07 193.356 1097.76 182.889C1119.45 172.421 1141.14 151.487 1162.83 151.487C1184.52 151.487 1206.2 172.421 1226.22 203.824C1247.91 235.226 1269.6 277.096 1291.29 256.161C1312.98 235.226 1334.67 151.487 1356.35 130.552C1378.04 109.617 1399.73 151.487 1421.42 182.889C1443.11 214.291 1463.13 235.226 1484.82 277.096C1506.51 318.965 1528.19 381.77 1549.88 434.107C1571.57 486.444 1593.26 528.314 1614.95 507.379C1636.64 486.444 1658.32 402.705 1678.34 329.433C1700.03 256.161 1721.72 193.356 1743.41 172.421C1765.1 151.487 1786.78 172.421 1808.47 224.759C1830.16 277.096 1851.85 360.835 1873.54 339.9C1893.56 318.965 1915.25 193.356 1936.93 141.019C1958.62 88.682 1980.31 109.617 1991.99 120.084L2002 130.552V695.793H1991.99C1980.31 695.793 1958.62 695.793 1936.93 695.793C1915.25 695.793 1893.56 695.793 1873.54 695.793C1851.85 695.793 1830.16 695.793 1808.47 695.793C1786.78 695.793 1765.1 695.793 1743.41 695.793C1721.72 695.793 1700.03 695.793 1678.34 695.793C1658.32 695.793 1636.64 695.793 1614.95 695.793C1593.26 695.793 1571.57 695.793 1549.88 695.793C1528.19 695.793 1506.51 695.793 1484.82 695.793C1463.13 695.793 1443.11 695.793 1421.42 695.793C1399.73 695.793 1378.04 695.793 1356.35 695.793C1334.67 695.793 1312.98 695.793 1291.29 695.793C1269.6 695.793 1247.91 695.793 1226.22 695.793C1206.2 695.793 1184.52 695.793 1162.83 695.793C1141.14 695.793 1119.45 695.793 1097.76 695.793C1076.07 695.793 1054.39 695.793 1032.7 695.793C1011.01 695.793 990.99 695.793 969.302 695.793C947.613 695.793 925.925 695.793 904.237 695.793C882.548 695.793 860.86 695.793 839.172 695.793C817.483 695.793 795.795 695.793 775.775 695.793C754.087 695.793 732.398 695.793 710.71 695.793C689.022 695.793 667.333 695.793 645.645 695.793C623.957 695.793 602.268 695.793 580.58 695.793C558.892 695.793 538.872 695.793 517.183 695.793C495.495 695.793 473.807 695.793 452.118 695.793C430.43 695.793 408.742 695.793 387.053 695.793C365.365 695.793 343.677 695.793 323.657 695.793C301.968 695.793 280.28 695.793 258.592 695.793C236.903 695.793 215.215 695.793 193.527 695.793C171.838 695.793 150.15 695.793 128.462 695.793C108.442 695.793 86.7533 695.793 65.065 695.793C43.3767 695.793 21.6883 695.793 10.01 695.793H0V193.356Z" fill="url(#paint2_linear_123_154)"/>
<path d="M0 694.581H2002V1061.5L995.5 1132.5L0 1084.5V694.581Z" fill="url(#paint3_linear_123_154)"/>
<path fill-rule="evenodd" clip-rule="evenodd" d="M0 420.38L10.01 473.337C21.6883 526.294 43.3767 632.209 65.065 653.392C86.7533 674.575 108.442 611.026 128.462 621.618C150.15 632.209 171.838 716.941 193.527 780.49C215.215 844.039 236.903 886.405 258.592 822.856C280.28 759.307 301.968 589.843 323.657 483.929C343.677 378.014 365.365 335.648 387.053 346.239C408.742 356.831 430.43 420.38 452.118 473.337C473.807 526.294 495.495 568.66 517.183 558.069C538.872 547.477 558.892 483.929 580.58 473.337C602.268 462.746 623.957 505.111 645.645 505.111C667.333 505.111 689.022 462.746 710.71 494.52C732.398 526.294 754.087 632.209 775.775 695.758C795.795 759.307 817.483 780.49 839.172 780.49C860.86 780.49 882.548 759.307 904.237 674.575C925.925 589.843 947.613 441.563 969.302 388.605C990.99 335.648 1011.01 378.014 1032.7 399.197C1054.39 420.38 1076.07 420.38 1097.76 409.788C1119.45 399.197 1141.14 378.014 1162.83 378.014C1184.52 378.014 1206.2 399.197 1226.22 430.971C1247.91 462.746 1269.6 505.111 1291.29 483.929C1312.98 462.746 1334.67 378.014 1356.35 356.831C1378.04 335.648 1399.73 378.014 1421.42 409.788C1443.11 441.563 1463.13 462.746 1484.82 505.111C1506.51 547.477 1528.19 611.026 1549.88 663.984C1571.57 716.941 1593.26 759.307 1614.95 738.124C1636.64 716.941 1658.32 632.209 1678.34 558.069C1700.03 483.929 1721.72 420.38 1743.41 399.197C1765.1 378.014 1786.78 399.197 1808.47 452.154C1830.16 505.111 1851.85 589.843 1873.54 568.66C1893.56 547.477 1915.25 420.38 1936.93 367.422C1958.62 314.465 1980.31 335.648 1991.99 346.239L2002 356.831V928.771H1991.99C1980.31 928.771 1958.62 928.771 1936.93 928.771C1915.25 928.771 1893.56 928.771 1873.54 928.771C1851.85 928.771 1830.16 928.771 1808.47 928.771C1786.78 928.771 1765.1 928.771 1743.41 928.771C1721.72 928.771 1700.03 928.771 1678.34 928.771C1658.32 928.771 1636.64 1186 1614.95 1186C1593.26 1186 1506.51 1098 1484.82 1098C1463.13 1098 1506.51 928.771 1484.82 928.771C1463.13 928.771 1443.11 928.771 1421.42 928.771C1399.73 928.771 1378.04 928.771 1356.35 928.771C1334.67 928.771 1312.98 928.771 1291.29 928.771C1269.6 928.771 1247.91 928.771 1226.22 928.771C1206.2 928.771 1184.52 928.771 1162.83 928.771C1141.14 928.771 1119.45 928.771 1097.76 928.771C1076.07 928.771 1054.39 928.771 1032.7 928.771C1011.01 928.771 990.99 928.771 969.302 928.771C947.613 928.771 956.188 1137 934.5 1137C912.812 1137 860.86 1237.5 839.172 1237.5C817.483 1237.5 741.02 1154.5 721 1154.5C699.312 1154.5 732.398 928.771 710.71 928.771C689.022 928.771 667.333 928.771 645.645 928.771C623.957 928.771 602.268 928.771 580.58 928.771C558.892 928.771 538.872 928.771 517.183 928.771C495.495 928.771 473.807 928.771 452.118 928.771C430.43 928.771 408.742 928.771 387.053 928.771C365.365 928.771 343.677 928.771 323.657 928.771C301.968 928.771 259.688 1355.5 238 1355.5C216.312 1355.5 182.188 1201.5 160.5 1201.5C138.812 1201.5 150.15 1009.5 128.462 1009.5C108.442 1009.5 102.188 1061.5 80.5 1061.5C58.8117 1061.5 21.6883 928.771 10.01 928.771H0V420.38Z" fill="url(#paint4_linear_123_154)"/>
<path fill-rule="evenodd" clip-rule="evenodd" d="M10.01 768.086L0 689.94V1252.02L10.01 1358.1C10.9124 1366.3 11.8745 1375.13 12.8918 1384.46C25.04 1495.95 45.0525 1679.61 65.065 1718.76C76.7713 1741.66 88.4775 1715.12 99.9215 1689.17C109.68 1667.04 119.247 1645.35 128.462 1655.11C145.33 1671.61 162.199 1777.95 179.068 1884.29C183.887 1914.67 188.707 1945.05 193.527 1973.34C215.215 2100.63 236.903 2185.49 258.592 2058.2C272.147 1978.64 285.702 1816.21 299.257 1653.79C307.39 1556.33 315.524 1458.87 323.657 1379.32C343.677 1167.16 365.365 1082.3 387.053 1103.52C405.127 1121.2 423.201 1212.54 441.274 1303.88C444.889 1322.15 448.504 1340.42 452.118 1358.1C473.807 1464.18 495.495 1549.04 517.183 1527.82C528.028 1517.21 538.455 1480.09 548.882 1442.96C559.309 1405.83 569.736 1368.71 580.58 1358.1C592.629 1346.31 604.678 1367.27 616.727 1388.22C626.366 1404.98 636.006 1421.75 645.645 1421.75C653.532 1421.75 661.418 1410.52 669.305 1399.3C683.107 1379.67 696.908 1360.03 710.71 1400.53C724.512 1441.03 738.313 1541.67 752.115 1642.31C760.002 1699.82 767.888 1757.33 775.775 1803.62C795.795 1930.91 817.483 1973.34 839.172 1973.34C860.86 1973.34 882.548 1930.91 904.237 1761.19C912.912 1693.3 921.587 1605.04 930.263 1516.79C943.276 1384.41 956.289 1252.02 969.302 1188.38C986.821 1102.7 1003.25 1141.59 1020.35 1182.08C1024.42 1191.71 1028.53 1201.44 1032.7 1209.59C1054.39 1252.02 1076.07 1252.02 1097.76 1230.81C1104.99 1223.74 1112.22 1214.31 1119.45 1204.88C1133.91 1186.02 1148.37 1167.16 1162.83 1167.16C1184.52 1167.16 1206.2 1209.59 1226.22 1273.24C1229.32 1282.33 1232.42 1291.86 1235.52 1301.38C1254.11 1358.53 1272.7 1415.68 1291.29 1379.32C1302.13 1358.1 1312.98 1305.06 1323.82 1252.02C1334.67 1198.99 1345.51 1145.95 1356.35 1124.73C1374.94 1088.37 1393.53 1145.52 1412.12 1202.67C1415.22 1212.19 1418.32 1221.72 1421.42 1230.81C1428.05 1250.28 1434.53 1267.76 1440.95 1285.08C1455.51 1324.38 1469.76 1362.84 1484.82 1421.75C1499.28 1478.32 1513.73 1553.75 1528.19 1629.18C1535.42 1666.9 1542.65 1704.61 1549.88 1739.97C1571.57 1846.05 1593.26 1930.91 1614.95 1888.48C1635.23 1848.79 1655.52 1697.73 1674.44 1556.83C1675.75 1547.1 1677.05 1537.42 1678.34 1527.82C1700.03 1379.32 1721.72 1252.02 1743.41 1209.59C1765.1 1167.16 1786.78 1209.59 1808.47 1315.67C1813.48 1340.15 1818.48 1368.02 1823.49 1395.89C1840.17 1488.78 1856.85 1581.68 1873.54 1549.04C1885.01 1524.73 1897.02 1430.83 1909.27 1335.09C1918.4 1263.69 1927.67 1191.27 1936.93 1145.95C1958.2 1041.96 1979.46 1080.69 1991.29 1102.24C1991.53 1102.68 1991.76 1103.1 1991.99 1103.52L2002 1124.73V596.165L1991.99 580.536C1991.76 580.229 1991.53 579.915 1991.29 579.597C1979.46 563.72 1958.2 535.187 1936.93 611.795C1927.67 645.179 1918.4 698.531 1909.27 751.134V751.135C1897.02 821.663 1885.01 890.843 1873.54 908.748C1856.85 932.792 1840.17 864.357 1823.49 795.922C1818.48 775.392 1813.48 754.861 1808.47 736.827C1786.78 658.682 1765.1 627.424 1743.41 658.682C1721.72 689.94 1700.03 783.715 1678.34 893.119C1677.15 899.66 1675.94 906.256 1674.73 912.886L1674.5 914.162L1674.44 914.492C1655.52 1018.29 1635.23 1129.57 1614.95 1158.81C1593.26 1190.07 1571.57 1127.56 1549.88 1049.41C1542.65 1023.36 1535.42 995.575 1528.19 967.79L1528.19 967.785C1513.73 912.217 1499.28 856.649 1484.82 814.973C1469.76 771.578 1455.51 743.244 1440.95 714.29L1440.95 714.286L1440.94 714.277C1434.53 701.523 1428.05 688.648 1421.42 674.311C1418.32 667.613 1415.22 660.596 1412.12 653.578C1393.53 611.475 1374.94 569.373 1356.35 596.165C1345.51 611.795 1334.67 650.867 1323.82 689.94C1312.98 729.013 1302.13 768.086 1291.29 783.715C1272.7 810.507 1254.11 768.405 1235.52 726.302C1232.42 719.285 1229.32 712.268 1226.22 705.569C1206.2 658.682 1184.52 627.424 1162.83 627.424C1148.37 627.424 1133.91 641.316 1119.45 655.209L1119.45 655.21C1112.22 662.156 1104.99 669.102 1097.76 674.311C1076.07 689.94 1054.39 689.94 1032.7 658.682C1028.53 652.673 1024.42 645.509 1020.35 638.411C1003.25 608.586 986.821 579.93 969.302 643.053C956.289 689.94 943.276 787.464 930.263 884.989L930.263 884.991C921.587 950.008 912.912 1015.03 904.237 1065.04C882.548 1190.07 860.86 1221.33 839.172 1221.33C817.483 1221.33 795.795 1190.07 775.775 1096.3C767.888 1062.2 760.002 1019.83 752.115 977.464L752.115 977.462C738.313 903.322 724.512 829.181 710.71 799.344C696.908 769.507 683.107 783.973 669.305 798.44C661.418 806.706 653.532 814.973 645.645 814.973C636.006 814.973 626.366 802.624 616.727 790.275C604.678 774.839 592.629 759.403 580.58 768.086C569.736 775.9 559.309 803.251 548.882 830.602C538.455 857.953 528.028 885.304 517.183 893.119C495.495 908.748 473.807 846.231 452.118 768.086C448.504 755.061 444.889 741.603 441.274 728.145C423.201 660.853 405.127 593.561 387.053 580.536C365.365 564.907 343.677 627.424 323.657 783.715C315.524 842.324 307.39 914.12 299.257 985.916C285.702 1105.58 272.147 1225.24 258.592 1283.85C236.903 1377.62 215.215 1315.1 193.527 1221.33C188.707 1200.49 183.888 1178.11 179.068 1155.73L179.068 1155.73C162.199 1077.39 145.33 999.049 128.462 986.893C119.247 979.7 109.68 995.682 99.9215 1011.98C88.4775 1031.1 76.7713 1050.65 65.065 1033.78C45.0525 1004.94 25.04 869.638 12.8918 787.506L12.8916 787.505L12.891 787.501C11.874 780.625 10.9121 774.122 10.01 768.086Z" fill="url(#paint5_linear_123_154)"/>
<defs>
<linearGradient id="paint0_linear_123_154" x1="3" y1="176.5" x2="1568.39" y2="1005.19" gradientUnits="userSpaceOnUse">
<stop stop-color="#8AFFCC"/>
<stop offset="0.528771" stop-color="#CFCEFF"/>
<stop offset="1" stop-color="#FFFE73"/>
</linearGradient>
<linearGradient id="paint1_linear_123_154" x1="3" y1="176.5" x2="1568.39" y2="1005.19" gradientUnits="userSpaceOnUse">
<stop stop-color="#8AFFCC"/>
<stop offset="0.528771" stop-color="#CFCEFF"/>
<stop offset="1" stop-color="#FFFE73"/>
</linearGradient>
<linearGradient id="paint2_linear_123_154" x1="-28.5" y1="388.5" x2="2000.13" y2="573.22" gradientUnits="userSpaceOnUse">
<stop stop-color="#FFFFC1"/>
<stop offset="0.491133" stop-color="#FFA9F1"/>
<stop offset="1" stop-color="#9FFFE6"/>
</linearGradient>
<linearGradient id="paint3_linear_123_154" x1="-28.5" y1="388.5" x2="2000.13" y2="573.22" gradientUnits="userSpaceOnUse">
<stop stop-color="#FFFFC1"/>
<stop offset="0.491133" stop-color="#FFA9F1"/>
<stop offset="1" stop-color="#9FFFE6"/>
</linearGradient>
<linearGradient id="paint4_linear_123_154" x1="-8.50002" y1="533" x2="1961.71" y2="838.811" gradientUnits="userSpaceOnUse">
<stop stop-color="#FF4E4E"/>
<stop offset="0.482727" stop-color="#A7EAFF"/>
<stop offset="1" stop-color="#B4FFBB"/>
</linearGradient>
<linearGradient id="paint5_linear_123_154" x1="-14" y1="998.5" x2="2000.83" y2="1078.33" gradientUnits="userSpaceOnUse">
<stop stop-color="#C9FFC8"/>
<stop offset="0.42875" stop-color="#FDFFA6"/>
<stop offset="1" stop-color="#FFA0EA"/>
</linearGradient>
</defs>
</svg>
