<svg width="2002" height="1026" viewBox="0 0 2002 1026" fill="none" xmlns="http://www.w3.org/2000/svg">
<path fill-rule="evenodd" clip-rule="evenodd" d="M0 86.3562L10.01 138.693C21.6883 191.03 43.3767 295.705 65.065 316.64C86.7533 337.574 108.442 274.77 128.462 285.237C150.15 295.705 171.838 379.444 193.527 442.249C215.215 505.053 236.903 546.923 258.592 484.118C280.28 421.314 301.968 253.835 323.657 149.161C343.677 44.4865 365.365 2.61686 387.053 13.0843C408.742 23.5517 430.43 86.3562 452.118 138.693C473.807 191.03 495.495 232.9 517.183 222.433C538.872 211.965 558.892 149.161 580.58 138.693C602.268 128.226 623.957 170.096 645.645 170.096C667.333 170.096 689.022 128.226 710.71 159.628C732.398 191.03 754.087 295.705 775.775 358.509C795.795 421.314 817.483 442.249 839.172 442.249C860.86 442.249 882.548 421.314 904.237 337.574C925.925 253.835 947.613 107.291 969.302 54.954C990.99 2.61686 1011.01 44.4865 1032.7 65.4214C1054.39 86.3562 1076.07 86.3562 1097.76 75.8888C1119.45 65.4214 1141.14 44.4865 1162.83 44.4865C1184.52 44.4865 1206.2 65.4214 1226.22 96.8237C1247.91 128.226 1269.6 170.096 1291.29 149.161C1312.98 128.226 1334.67 44.4865 1356.35 23.5517C1378.04 2.61686 1399.73 44.4865 1421.42 75.8888C1443.11 107.291 1463.13 128.226 1484.82 170.096C1506.5 211.965 1528.19 274.77 1549.88 327.107C1571.57 379.444 1593.26 421.314 1614.95 400.379C1636.63 379.444 1658.32 295.705 1678.34 222.433C1700.03 149.161 1721.72 86.3562 1743.41 65.4214C1765.1 44.4865 1786.78 65.4214 1808.47 117.759C1830.16 170.096 1851.85 253.835 1873.54 232.9C1893.56 211.965 1915.25 86.3562 1936.93 34.0191C1958.62 -18.318 1980.31 2.61686 1991.99 13.0843L2002 23.5517V588.793H1991.99C1980.31 588.793 1958.62 588.793 1936.93 588.793C1915.25 588.793 1893.56 588.793 1873.54 588.793C1851.85 588.793 1830.16 588.793 1808.47 588.793C1786.78 588.793 1765.1 588.793 1743.41 588.793C1721.72 588.793 1700.03 588.793 1678.34 588.793C1658.32 588.793 1636.63 588.793 1614.95 588.793C1593.26 588.793 1571.57 588.793 1549.88 588.793C1528.19 588.793 1506.5 588.793 1484.82 588.793C1463.13 588.793 1443.11 588.793 1421.42 588.793C1399.73 588.793 1378.04 588.793 1356.35 588.793C1334.67 588.793 1312.98 588.793 1291.29 588.793C1269.6 588.793 1247.91 588.793 1226.22 588.793C1206.2 588.793 1184.52 588.793 1162.83 588.793C1141.14 588.793 1119.45 588.793 1097.76 588.793C1076.07 588.793 1054.39 588.793 1032.7 588.793C1011.01 588.793 990.99 588.793 969.302 588.793C947.613 588.793 925.925 588.793 904.237 588.793C882.548 588.793 860.86 588.793 839.172 588.793C817.483 588.793 795.795 588.793 775.775 588.793C754.087 588.793 732.398 588.793 710.71 588.793C689.022 588.793 667.333 588.793 645.645 588.793C623.957 588.793 602.268 588.793 580.58 588.793C558.892 588.793 538.872 588.793 517.183 588.793C495.495 588.793 473.807 588.793 452.118 588.793C430.43 588.793 408.742 588.793 387.053 588.793C365.365 588.793 343.677 588.793 323.657 588.793C301.968 588.793 280.28 588.793 258.592 588.793C236.903 588.793 215.215 588.793 193.527 588.793C171.838 588.793 150.15 588.793 128.462 588.793C108.442 588.793 86.7533 588.793 65.065 588.793C43.3767 588.793 21.6883 588.793 10.01 588.793H0V86.3562Z" fill="url(#paint0_linear_164_119)"/>
<path d="M0 587.581H2002V954.5L995.5 1025.5L0 977.5V587.581Z" fill="url(#paint1_linear_164_119)"/>
<defs>
<linearGradient id="paint0_linear_164_119" x1="997" y1="9" x2="892.369" y2="1033.31" gradientUnits="userSpaceOnUse">
<stop stop-color="#FFFFC1"/>
<stop offset="0.49046" stop-color="#FFA9F1"/>
<stop offset="1" stop-color="#9FFFE6"/>
</linearGradient>
<linearGradient id="paint1_linear_164_119" x1="997" y1="9" x2="892.369" y2="1033.31" gradientUnits="userSpaceOnUse">
<stop stop-color="#FFFFC1"/>
<stop offset="0.49046" stop-color="#FFA9F1"/>
<stop offset="1" stop-color="#9FFFE6"/>
</linearGradient>
</defs>
</svg>
